<svg width="425.24375px" height="240.79999999999998px" xmlns="http://www.w3.org/2000/svg" viewBox="37.37812500000001 -45.39999999999999 425.24375 240.79999999999998" style="background: rgba(0, 0, 0, 0);" preserveAspectRatio="xMidYMid"><defs><filter id="editing-extrusion" x="-100%" y="-100%" width="300%" height="300%"><feFlood result="color1" flood-color="#e153c8"></feFlood><feConvolveMatrix order="8,8" divisor="1" kernelMatrix="1 0 0 0 0 0 0 0 0 1 0 0 0 0 0 0 0 0 1 0 0 0 0 0 0 0 0 1 0 0 0 0 0 0 0 0 1 0 0 0 0 0 0 0 0 1 0 0 0 0 0 0 0 0 1 0 0 0 0 0 0 0 0 1" in="SourceAlpha" result="extrude"></feConvolveMatrix><feComposite in="color1" in2="extrude" result="comp-extrude" operator="in"></feComposite><feOffset dx="4" dy="4" in="comp-extrude" result="offset-extrude"></feOffset><feMerge><feMergeNode in="offset-extrude"></feMergeNode><feMergeNode in="SourceGraphic"></feMergeNode></feMerge></filter></defs><g filter="url(#editing-extrusion)"><g transform="translate(99.92498111724854, 123.41499423980713)"><path d="M61.47 0L61.47-48.69L18.22-48.69L18.22 0L10.61 0L10.61-95.20L18.22-95.20L18.22-56.17L61.47-56.17L61.47-95.20L69.09-95.20L69.09 0L61.47 0ZM128.11 0L128.66-6.94L128.66-6.94Q125.39-2.86 120.43-0.68L120.43-0.68L120.43-0.68Q115.46 1.50 110.43 1.50L110.43 1.50L110.43 1.50Q84.86 1.50 84.86-23.39L84.86-23.39L84.86-68.14L92.48-68.14L92.48-22.44L92.48-22.44Q92.48-13.74 97.31-9.52L97.31-9.52L97.31-9.52Q102.14-5.30 110.43-5.30L110.43-5.30L110.43-5.30Q118.59-5.30 123.28-9.45L123.28-9.45L123.28-9.45Q127.98-13.60 127.98-22.44L127.98-22.44L127.98-68.14L135.59-68.14L135.59 0L128.11 0ZM151.37-47.06L151.37-47.06Q151.37-61.34 162.93-66.64L162.93-66.64L162.93-66.64Q168.50-69.22 176.26-69.22L176.26-69.22L176.26-69.22Q181.29-69.22 185.98-68L185.98-68L185.98-68Q190.67-66.78 193.94-64.46L193.94-64.46L193.94-95.20L201.55-95.20L201.55 0L194.07 0.68L194.07 0.68Q185.23 1.63 180.20 1.63L180.20 1.63L180.20 1.63Q175.17 1.63 170.75 0.68L170.75 0.68L170.75 0.68Q166.33-0.27 161.98-2.45L161.98-2.45L161.98-2.45Q157.08-4.90 154.22-9.66L154.22-9.66L154.22-9.66Q151.37-14.42 151.37-21.35L151.37-21.35L151.37-47.06ZM193.94-57.80L193.94-57.80Q190.26-59.84 185.50-61.13L185.50-61.13L185.50-61.13Q180.74-62.42 176.12-62.42L176.12-62.42L176.12-62.42Q168.50-62.42 163.68-58.68L163.68-58.68L163.68-58.68Q158.85-54.94 158.85-46.65L158.85-46.65L158.85-21.22L158.85-21.22Q158.85-5.30 180.74-5.30L180.74-5.30L180.74-5.30Q185.91-5.30 193.94-6.53L193.94-6.53L193.94-57.80ZM216.65-47.06L216.65-47.06Q216.65-61.34 228.21-66.64L228.21-66.64L228.21-66.64Q233.78-69.22 241.54-69.22L241.54-69.22L241.54-69.22Q246.57-69.22 251.26-68L251.26-68L251.26-68Q255.95-66.78 259.22-64.46L259.22-64.46L259.22-95.20L266.83-95.20L266.83 0L259.35 0.68L259.35 0.68Q250.51 1.63 245.48 1.63L245.48 1.63L245.48 1.63Q240.45 1.63 236.03 0.68L236.03 0.68L236.03 0.68Q231.61-0.27 227.26-2.45L227.26-2.45L227.26-2.45Q222.36-4.90 219.50-9.66L219.50-9.66L219.50-9.66Q216.65-14.42 216.65-21.35L216.65-21.35L216.65-47.06ZM259.22-57.80L259.22-57.80Q255.54-59.84 250.78-61.13L250.78-61.13L250.78-61.13Q246.02-62.42 241.40-62.42L241.40-62.42L241.40-62.42Q233.78-62.42 228.96-58.68L228.96-58.68L228.96-58.68Q224.13-54.94 224.13-46.65L224.13-46.65L224.13-21.22L224.13-21.22Q224.13-5.30 246.02-5.30L246.02-5.30L246.02-5.30Q251.19-5.30 259.22-6.53L259.22-6.53L259.22-57.80ZM281.93 0L281.93-95.20L289.54-95.20L289.54 0L281.93 0Z" fill="#444444"></path></g></g><style>text {
  font-size: 64px;
  font-family: Arial Black;
  dominant-baseline: central;
  text-anchor: middle;
}</style></svg>